<svg version="1.1" id="Layer_1" xmlns="http://www.w3.org/2000/svg" xmlns:xlink="http://www.w3.org/1999/xlink" viewBox="0 0 512 512" xml:space="preserve" fill="#000000"><g id="SVGRepo_bgCarrier" stroke-width="0"></g><g id="SVGRepo_tracerCarrier" stroke-linecap="round" stroke-linejoin="round"></g><g id="SVGRepo_iconCarrier"> <path style="fill:#FDD089;" d="M256,504.229L256,504.229c-48.646,0-88.081-39.436-88.081-88.081V95.852 c0-48.645,39.435-88.081,88.081-88.081l0,0c48.645,0,88.081,39.436,88.081,88.081v320.296 C344.081,464.794,304.646,504.229,256,504.229z"></path> <path style="fill:#FBB03B;" d="M215.593,416.148V95.852c0-40.587,26.895-74.669,64.243-84.879 c-7.415-2.028-15.474-3.202-23.532-3.202c-48.645,0-88.369,39.436-88.369,88.081v320.295c0,48.645,39.428,88.081,88.073,88.081 c8.06,0,16.418-1.175,23.834-3.202C242.493,490.818,215.593,456.735,215.593,416.148z"></path> <rect x="167.916" y="183.933" style="fill:#BDCCD4;" width="176.163" height="144.138"></rect> <rect x="167.916" y="183.933" style="fill:#6B7E87;" width="48.042" height="144.138"></rect> <path style="fill:#FFFFFF;" d="M307.802,304.045H204.198c-6.77,0-12.257-5.487-12.257-12.257v-71.576 c0-6.77,5.487-12.257,12.257-12.257h103.605c6.769,0,12.257,5.487,12.257,12.257v71.576 C320.059,298.556,314.572,304.045,307.802,304.045z"></path> <path d="M310.481,311.815H201.519c-9.566,0-17.349-7.783-17.349-17.349v-76.932c0-9.566,7.783-17.349,17.349-17.349h108.961 c9.566,0,17.349,7.783,17.349,17.349v76.932C327.83,304.032,320.048,311.815,310.481,311.815z M201.519,215.726 c-0.997,0-1.808,0.811-1.808,1.808v76.932c0,0.997,0.811,1.808,1.808,1.808h108.961c0.997,0,1.808-0.811,1.808-1.808v-76.932 c0-0.997-0.811-1.808-1.808-1.808H201.519z"></path> <rect x="183.477" y="144.107" width="16.577" height="15.541"></rect> <rect x="215.595" y="144.107" width="16.577" height="15.541"></rect> <rect x="247.714" y="144.107" width="16.577" height="15.541"></rect> <rect x="279.832" y="144.107" width="16.577" height="15.541"></rect> <rect x="311.95" y="144.107" width="16.577" height="15.541"></rect> <rect x="183.477" y="79.87" width="16.577" height="15.541"></rect> <rect x="215.595" y="79.87" width="16.577" height="15.541"></rect> <rect x="247.714" y="79.87" width="16.577" height="15.541"></rect> <rect x="279.832" y="79.87" width="16.577" height="15.541"></rect> <rect x="311.95" y="79.87" width="16.577" height="15.541"></rect> <rect x="200.054" y="111.989" width="15.541" height="15.541"></rect> <rect x="232.173" y="111.989" width="15.541" height="15.541"></rect> <rect x="264.291" y="111.989" width="15.541" height="15.541"></rect> <rect x="296.409" y="111.989" width="15.541" height="15.541"></rect> <rect x="200.054" y="47.752" width="15.541" height="15.541"></rect> <rect x="232.173" y="47.752" width="15.541" height="15.541"></rect> <rect x="264.291" y="47.752" width="15.541" height="15.541"></rect> <rect x="296.409" y="47.752" width="15.541" height="15.541"></rect> <rect x="183.477" y="352.356" width="16.577" height="15.541"></rect> <rect x="215.595" y="352.356" width="16.577" height="15.541"></rect> <rect x="247.714" y="352.356" width="16.577" height="15.541"></rect> <rect x="279.832" y="352.356" width="16.577" height="15.541"></rect> <rect x="311.95" y="352.356" width="16.577" height="15.541"></rect> <rect x="183.477" y="416.593" width="16.577" height="15.541"></rect> <rect x="215.595" y="416.593" width="16.577" height="15.541"></rect> <rect x="247.714" y="416.593" width="16.577" height="15.541"></rect> <rect x="279.832" y="416.593" width="16.577" height="15.541"></rect> <rect x="311.95" y="416.593" width="16.577" height="15.541"></rect> <rect x="200.054" y="384.474" width="15.541" height="15.541"></rect> <rect x="232.173" y="384.474" width="15.541" height="15.541"></rect> <rect x="264.291" y="384.474" width="15.541" height="15.541"></rect> <rect x="296.409" y="384.474" width="15.541" height="15.541"></rect> <rect x="200.054" y="448.711" width="15.541" height="15.541"></rect> <rect x="232.173" y="448.711" width="15.541" height="15.541"></rect> <rect x="264.291" y="448.711" width="15.541" height="15.541"></rect> <rect x="296.409" y="448.711" width="15.541" height="15.541"></rect> <rect x="223.884" y="240.461" style="fill:#6B7E87;" width="64.236" height="31.082"></rect> <path d="M256,0c-52.853,0-95.852,42.999-95.852,95.852v320.296C160.148,469.001,203.147,512,256,512s95.852-42.999,95.852-95.852 V95.852C351.852,42.999,308.853,0,256,0z M336.311,416.148c0,41.837-32.163,76.288-73.058,79.968v-16.325h-15.541v16.241 c-40.405-4.162-72.022-38.399-72.022-79.884v-80.371h160.622V416.148z M336.311,320.236H175.689V191.764h160.622V320.236z M336.311,176.223H175.689V95.852c0-41.485,31.619-75.722,72.022-79.884v16.241h15.541V15.884 c40.896,3.68,73.058,38.13,73.058,79.968V176.223z"></path> <path d="M295.371,279.83h-78.741V232.17h78.741V279.83z M232.17,264.289h47.659v-16.577H232.17L232.17,264.289L232.17,264.289z"></path> </g></svg>